<?xml version="1.0" encoding="utf-8"?>
<!-- Generator: Adobe Illustrator 23.1.0, SVG Export Plug-In . SVG Version: 6.00 Build 0)  -->
<svg version="1.1" xmlns="http://www.w3.org/2000/svg" xmlns:xlink="http://www.w3.org/1999/xlink" x="0px" y="0px"
	 viewBox="0 0 595.3 595.3" enable-background="new 0 0 595.3 595.3" xml:space="preserve">
<g id="Capa_1">
</g>
<g id="Capa_2">
	<g>
		
			<path fill="#F2CA71" stroke="#F2CA71" stroke-width="1.6581" stroke-linecap="round" stroke-linejoin="round" stroke-miterlimit="10" d="
			M438.1,190.7c8.6-9.6,0.3-19,0.3-19c11.8,7.1,18.8-2.6,18.8-2.6s-8.8,8.1-0.4,19C456.9,188.1,446.7,181,438.1,190.7"/>
		
			<path fill="#F2CA71" stroke="#F2CA71" stroke-width="1.6581" stroke-linecap="round" stroke-linejoin="round" stroke-miterlimit="10" d="
			M298.3,273.1c8.6-9.6,0.3-19,0.3-19c11.8,7.1,18.8-2.6,18.8-2.6s-8.8,8.1-0.4,19C317.1,270.6,306.9,263.4,298.3,273.1"/>
		
			<path fill="#F2CA71" stroke="#F2CA71" stroke-width="1.6581" stroke-linecap="round" stroke-linejoin="round" stroke-miterlimit="10" d="
			M505.4,486.5c8.6-9.6,0.3-19,0.3-19c11.8,7.1,18.8-2.6,18.8-2.6s-8.8,8.1-0.4,19C524.2,484,513.9,476.9,505.4,486.5"/>
		
			<path fill="#F2CA71" stroke="#F2CA71" stroke-width="1.6581" stroke-linecap="round" stroke-linejoin="round" stroke-miterlimit="10" d="
			M554.7,322c5.3-5.9,1.2-10.8,1.2-10.8c6.2,3.4,10.6-2.4,10.6-2.4s-5.3,5.1-1.2,10.9C565.3,319.5,559.9,316,554.7,322"/>
		
			<path fill="#F2CA71" stroke="#F2CA71" stroke-width="0.7116" stroke-linecap="round" stroke-linejoin="round" stroke-miterlimit="10" d="
			M399.1,197.3c-4.1,4.6-8.1,1.9-8.1,1.9c3.1,4.4-1,8.3-1,8.3s3.4-4.5,8.1-1.9C398.2,205.6,395,201.9,399.1,197.3"/>
		
			<path fill="#F2CA71" stroke="#F2CA71" stroke-width="0.8479" stroke-linecap="round" stroke-linejoin="round" stroke-miterlimit="10" d="
			M480.9,395.3c4.4-4.9,0.2-9.7,0.2-9.7c6,3.6,9.6-1.3,9.6-1.3s-4.5,4.1-0.2,9.7C490.5,394,485.2,390.4,480.9,395.3"/>
		<circle fill="#F2CA71" cx="427.6" cy="241.8" r="4.7"/>
		<circle fill="#F2CA71" cx="544.9" cy="387.1" r="4.7"/>
		<circle fill="#F2CA71" cx="452.4" cy="462.4" r="4.7"/>
		<circle fill="#F2CA71" cx="341.6" cy="312" r="4.7"/>
		<circle fill="#F2CA71" cx="358.8" cy="259.3" r="4.7"/>
		<circle fill="#F2CA71" cx="551.7" cy="259.3" r="4.7"/>
		
			<path fill="#F2CA71" stroke="#F2CA71" stroke-width="1.6581" stroke-linecap="round" stroke-linejoin="round" stroke-miterlimit="10" d="
			M463.1,37.2c8.6-9.6,0.3-19,0.3-19c11.8,7.1,18.8-2.6,18.8-2.6s-8.8,8.1-0.4,19C481.8,34.6,471.6,27.5,463.1,37.2"/>
		
			<path fill="#F2CA71" stroke="#F2CA71" stroke-width="1.6581" stroke-linecap="round" stroke-linejoin="round" stroke-miterlimit="10" d="
			M380.8,84.6c8.6-9.6,0.3-19,0.3-19c11.8,7.1,18.8-2.6,18.8-2.6s-8.8,8.1-0.4,19C399.6,82.1,389.3,74.9,380.8,84.6"/>
		
			<path fill="#F2CA71" stroke="#F2CA71" stroke-width="1.6581" stroke-linecap="round" stroke-linejoin="round" stroke-miterlimit="10" d="
			M488.7,121.7c8.6-9.6,0.3-19,0.3-19c11.8,7.1,18.8-2.6,18.8-2.6s-8.8,8.1-0.4,19C507.5,119.2,497.2,112,488.7,121.7"/>
		
			<path fill="#F2CA71" stroke="#F2CA71" stroke-width="1.6581" stroke-linecap="round" stroke-linejoin="round" stroke-miterlimit="10" d="
			M530.7,583.5c8.6-9.6,0.3-19,0.3-19c11.8,7.1,18.8-2.6,18.8-2.6s-8.8,8.1-0.4,19C549.4,580.9,539.2,573.8,530.7,583.5"/>
		
			<path fill="#F2CA71" stroke="#F2CA71" stroke-width="1.6581" stroke-linecap="round" stroke-linejoin="round" stroke-miterlimit="10" d="
			M253.7,41.9c8.6-9.6,0.3-19,0.3-19c11.8,7.1,18.8-2.6,18.8-2.6s-8.8,8.1-0.4,19C272.5,39.4,262.2,32.2,253.7,41.9"/>
		
			<path fill="#F2CA71" stroke="#F2CA71" stroke-width="1.6581" stroke-linecap="round" stroke-linejoin="round" stroke-miterlimit="10" d="
			M517.9,296.2c8.6-9.6,0.3-19,0.3-19c11.8,7.1,18.8-2.6,18.8-2.6s-8.8,8.1-0.4,19C536.7,293.7,526.4,286.5,517.9,296.2"/>
		
			<path fill="#F2CA71" stroke="#F2CA71" stroke-width="1.6581" stroke-linecap="round" stroke-linejoin="round" stroke-miterlimit="10" d="
			M567.2,131.6c5.3-5.9,1.2-10.8,1.2-10.8c6.2,3.4,10.6-2.4,10.6-2.4s-5.3,5.1-1.2,10.9C577.8,129.2,572.4,125.7,567.2,131.6"/>
		
			<path fill="#F2CA71" stroke="#F2CA71" stroke-width="0.7116" stroke-linecap="round" stroke-linejoin="round" stroke-miterlimit="10" d="
			M411.6,7c-4.1,4.6-8.1,1.9-8.1,1.9c3.1,4.4-1,8.3-1,8.3s3.4-4.5,8.1-1.9C410.7,15.3,407.5,11.5,411.6,7"/>
		
			<path fill="#F2CA71" stroke="#F2CA71" stroke-width="0.8479" stroke-linecap="round" stroke-linejoin="round" stroke-miterlimit="10" d="
			M493.4,205c4.4-4.9,0.2-9.7,0.2-9.7c6,3.6,9.6-1.3,9.6-1.3s-4.5,4.1-0.2,9.7C503,203.7,497.7,200,493.4,205"/>
		<circle fill="#F2CA71" cx="440.1" cy="51.4" r="4.7"/>
		<circle fill="#F2CA71" cx="557.5" cy="196.8" r="4.7"/>
		<circle fill="#F2CA71" cx="464.9" cy="272" r="4.7"/>
		<circle fill="#F2CA71" cx="354.1" cy="121.7" r="4.7"/>
		<circle fill="#F2CA71" cx="340.8" cy="49.3" r="4.7"/>
		<circle fill="#F2CA71" cx="564.2" cy="69" r="4.7"/>
		
			<path fill="#F2CA71" stroke="#F2CA71" stroke-width="1.6581" stroke-linecap="round" stroke-linejoin="round" stroke-miterlimit="10" d="
			M175.5,292.5c8.6-9.6,0.3-19,0.3-19c11.8,7.1,18.8-2.6,18.8-2.6s-8.8,8.1-0.4,19C194.2,290,184,282.9,175.5,292.5"/>
		
			<path fill="#F2CA71" stroke="#F2CA71" stroke-width="1.6581" stroke-linecap="round" stroke-linejoin="round" stroke-miterlimit="10" d="
			M93.2,340c8.6-9.6,0.3-19,0.3-19c11.8,7.1,18.8-2.6,18.8-2.6s-8.8,8.1-0.4,19C112,337.4,101.7,330.3,93.2,340"/>
		
			<path fill="#F2CA71" stroke="#F2CA71" stroke-width="1.6581" stroke-linecap="round" stroke-linejoin="round" stroke-miterlimit="10" d="
			M13.2,377.5c8.6-9.6,0.3-19,0.3-19c11.8,7.1,18.8-2.6,18.8-2.6s-8.8,8.1-0.4,19C32,375,21.8,367.8,13.2,377.5"/>
		
			<path fill="#F2CA71" stroke="#F2CA71" stroke-width="1.6581" stroke-linecap="round" stroke-linejoin="round" stroke-miterlimit="10" d="
			M182.4,587.3c8.6-9.6,0.3-19,0.3-19c11.8,7.1,18.8-2.6,18.8-2.6s-8.8,8.1-0.4,19C201.1,584.7,190.9,577.6,182.4,587.3"/>
		
			<path fill="#F2CA71" stroke="#F2CA71" stroke-width="1.6581" stroke-linecap="round" stroke-linejoin="round" stroke-miterlimit="10" d="
			M279.6,387c5.3-5.9,1.2-10.8,1.2-10.8c6.2,3.4,10.6-2.4,10.6-2.4s-5.3,5.1-1.2,10.9C290.2,384.6,284.8,381,279.6,387"/>
		
			<path fill="#F2CA71" stroke="#F2CA71" stroke-width="0.7116" stroke-linecap="round" stroke-linejoin="round" stroke-miterlimit="10" d="
			M124,262.3c-4.1,4.6-8.1,1.9-8.1,1.9c3.1,4.4-1,8.3-1,8.3s3.4-4.5,8.1-1.9C123.1,270.6,119.9,266.9,124,262.3"/>
		
			<path fill="#F2CA71" stroke="#F2CA71" stroke-width="0.8479" stroke-linecap="round" stroke-linejoin="round" stroke-miterlimit="10" d="
			M205.8,460.3c4.4-4.9,0.2-9.7,0.2-9.7c6,3.6,9.6-1.3,9.6-1.3s-4.5,4.1-0.2,9.7C215.4,459,210.1,455.4,205.8,460.3"/>
		<circle fill="#F2CA71" cx="152.5" cy="306.8" r="4.7"/>
		<circle fill="#F2CA71" cx="269.9" cy="452.2" r="4.7"/>
		<circle fill="#F2CA71" cx="177.4" cy="527.4" r="4.7"/>
		<circle fill="#F2CA71" cx="66.5" cy="377.1" r="4.7"/>
		<circle fill="#F2CA71" cx="53.2" cy="304.6" r="4.7"/>
		<circle fill="#F2CA71" cx="276.6" cy="324.4" r="4.7"/>
		
			<path fill="#F2CA71" stroke="#F2CA71" stroke-width="1.6581" stroke-linecap="round" stroke-linejoin="round" stroke-miterlimit="10" d="
			M215.1,394.1c8.6-9.6,0.3-19,0.3-19c11.8,7.1,18.8-2.6,18.8-2.6s-8.8,8.1-0.4,19C233.9,391.6,223.6,384.5,215.1,394.1"/>
		
			<path fill="#F2CA71" stroke="#F2CA71" stroke-width="1.6581" stroke-linecap="round" stroke-linejoin="round" stroke-miterlimit="10" d="
			M29.3,233.7c8.6-9.6,0.3-19,0.3-19c11.8,7.1,18.8-2.6,18.8-2.6s-8.8,8.1-0.4,19C48.1,231.2,37.8,224,29.3,233.7"/>
		
			<path fill="#F2CA71" stroke="#F2CA71" stroke-width="1.6581" stroke-linecap="round" stroke-linejoin="round" stroke-miterlimit="10" d="
			M38.9,48c8.6-9.6,0.3-19,0.3-19C51,36.1,58,26.4,58,26.4s-8.8,8.1-0.4,19C57.7,45.4,47.4,38.3,38.9,48"/>
		
			<path fill="#F2CA71" stroke="#F2CA71" stroke-width="1.6581" stroke-linecap="round" stroke-linejoin="round" stroke-miterlimit="10" d="
			M38.9,537.8c8.6-9.6,0.3-19,0.3-19c11.8,7.1,18.8-2.6,18.8-2.6s-8.8,8.1-0.4,19C57.7,535.3,47.4,528.1,38.9,537.8"/>
		
			<path fill="#F2CA71" stroke="#F2CA71" stroke-width="1.6581" stroke-linecap="round" stroke-linejoin="round" stroke-miterlimit="10" d="
			M319.2,488.6c5.3-5.9,1.2-10.8,1.2-10.8c6.2,3.4,10.6-2.4,10.6-2.4s-5.3,5.1-1.2,10.9C329.8,486.1,324.5,482.6,319.2,488.6"/>
		
			<path fill="#F2CA71" stroke="#F2CA71" stroke-width="0.7116" stroke-linecap="round" stroke-linejoin="round" stroke-miterlimit="10" d="
			M163.7,363.9c-4.1,4.6-8.1,1.9-8.1,1.9c3.1,4.4-1,8.3-1,8.3s3.4-4.5,8.1-1.9C162.7,372.2,159.6,368.5,163.7,363.9"/>
		
			<path fill="#F2CA71" stroke="#F2CA71" stroke-width="0.8479" stroke-linecap="round" stroke-linejoin="round" stroke-miterlimit="10" d="
			M320.2,589c4.4-4.9,0.2-9.7,0.2-9.7c6,3.6,9.6-1.3,9.6-1.3s-4.5,4.1-0.2,9.7C329.8,587.7,324.6,584.1,320.2,589"/>
		<circle fill="#F2CA71" cx="192.1" cy="408.4" r="4.7"/>
		<circle fill="#F2CA71" cx="444.8" cy="561.9" r="4.7"/>
		<circle fill="#F2CA71" cx="117.9" cy="561.9" r="4.7"/>
		<circle fill="#F2CA71" cx="106.1" cy="478.7" r="4.7"/>
		<circle fill="#F2CA71" cx="142.8" cy="26.4" r="4.7"/>
		<circle fill="#F2CA71" cx="29.2" cy="454.8" r="4.7"/>
		<g>
			<path fill="#398087" stroke="#F2CA71" stroke-width="1.6581" stroke-miterlimit="10" d="M344.4,458.7l-17.5-14.8
				c0,0,25.4-53.8,40.1-79.5c0,0,31-73.6,96.7-56.5c0,0,7.4,1.9,10,8.5c24.9,63.2-40,104.6-40,104.6c-22.9,18.7-71.9,52.5-71.9,52.5
				L344.4,458.7L344.4,458.7z"/>
			<path opacity="0.8" fill="#316567" d="M470.8,312c0,0-11.6-8.9-40.3-3.9c0,0-24.9,1.5-52.7,40.2c0,0-16.8,26.8-42,80.6l11.1,9.4
				C347,438.3,409.5,288.3,470.8,312z"/>
			<circle fill="#91D0D3" cx="431.6" cy="355.7" r="18.8"/>
			<circle fill="none" stroke="#F2CA71" stroke-width="1.6581" stroke-miterlimit="10" cx="431.6" cy="355.7" r="18.8"/>
			<g>
				<path fill="#C9E2E1" d="M439.9,341.9c2.1,1.3,3.8,3.1,5.1,5.3c1.3,2.1,2.1,4.6,2.3,7.1c0.2,2.5-0.2,5.1-1.1,7.4
					c-0.9,2.3-2.4,4.4-4.2,6c1.3-2.1,2.3-4.2,2.9-6.4c0.6-2.2,0.9-4.5,0.7-6.8c-0.2-2.3-0.8-4.5-1.8-6.6
					C442.9,345.7,441.5,343.7,439.9,341.9z"/>
			</g>
			<path fill="#F7A810" d="M353.5,476.7c-14.9,17.5-40.4,18.5-40.4,18.5s-3.2-25.3,11.7-42.8L353.5,476.7z"/>
			<path fill="#F2CA71" d="M320.5,486.4c0.1-5.7,2.9-16.5,6.7-24.4l16.2,13.8C336.3,480.8,326.1,485.3,320.5,486.4z"/>
			<path fill="none" stroke="#F2CA71" stroke-width="1.6581" stroke-miterlimit="10" d="M353.5,476.7
				c-14.9,17.5-40.4,18.5-40.4,18.5s-3.2-25.3,11.7-42.8L353.5,476.7z"/>
			<polygon fill="#68959C" stroke="#F2CA71" stroke-width="1.6581" stroke-miterlimit="10" points="334.6,427.8 376.5,463.4 
				361.9,473.6 326.9,443.9 			"/>
			<path fill="#5E8084" stroke="#F2CA71" stroke-width="1.6581" stroke-miterlimit="10" d="M360.2,376.2L337.4,422l-41.3-1.9
				c-2.4-0.3-3.4-3.4-1.5-5c10-8.4,31.6-26.7,31.6-26.7L360.2,376.2z"/>
			
				<path fill="#68959C" stroke="#F2CA71" stroke-width="1.6581" stroke-linecap="round" stroke-linejoin="round" stroke-miterlimit="10" d="
				M423.2,429.8l-41.5,29.9l8.6,40.4c0.7,2.4,3.9,2.8,5.1,0.7c6.7-11.2,21.3-35.5,21.3-35.5L423.2,429.8z"/>
			<g>
				
					<path fill="none" stroke="#F2CA71" stroke-width="1.6581" stroke-linecap="round" stroke-linejoin="round" stroke-miterlimit="10" d="
					M458.6,323.8c14,11.9,20.3,13.1,20.3,13.1s-2.8-21.5-9.4-26c0,0-3.2-5.2-27.4-5.6C442.2,305.4,444.6,311.9,458.6,323.8z"/>
			</g>
			<polygon fill="#5E8084" points="334.9,429.2 346.6,439.2 340.3,453.8 328.4,443.6 			"/>
		</g>
		
			<line opacity="0.4" fill="none" stroke="#398087" stroke-width="1.6581" stroke-linecap="round" stroke-linejoin="round" stroke-miterlimit="10" stroke-dasharray="6.6325" x1="301.3" y1="547.3" x2="338" y2="498.1"/>
		
			<line fill="none" stroke="#F39200" stroke-width="1.6581" stroke-linecap="round" stroke-linejoin="round" stroke-miterlimit="10" stroke-dasharray="6.6325" x1="327.7" y1="542.7" x2="368.4" y2="487.9"/>
		
			<line opacity="0.4" fill="none" stroke="#398087" stroke-width="1.6581" stroke-linecap="round" stroke-linejoin="round" stroke-miterlimit="10" stroke-dasharray="6.6325" x1="263.2" y1="513.4" x2="307.9" y2="471.3"/>
		
			<line fill="none" stroke="#F39200" stroke-width="1.6581" stroke-linecap="round" stroke-linejoin="round" stroke-miterlimit="10" stroke-dasharray="6.6325" x1="264.8" y1="486.7" x2="314.5" y2="439.9"/>
		
			<line fill="none" stroke="#F39200" stroke-width="1.3746" stroke-linecap="round" stroke-linejoin="round" stroke-miterlimit="10" stroke-dasharray="5.4983" x1="265.5" y1="551.7" x2="302" y2="508.5"/>
		<g>
			<path fill="#91B4B6" stroke="#F2CA71" stroke-width="2.6893" stroke-linecap="round" stroke-linejoin="round" d="M216.2,51.2
				c0,0-80-19.9-119.4,52.2c-0.6,1-1,2.1-1.5,3.1c-5.8,12.9-33.2,99.1,49.1,125.8c0,0,113.5,40.5,140.7-77.9
				C285.1,154.5,298.7,76.2,216.2,51.2z"/>
			<path fill="#68959C" d="M155.3,232.6c-86.8-22.9-62.7-109.9-56.9-122.7c0.5-1.1-0.5,1.1,0,0C131.9,35,213.7,54,213.7,54
				s-71.8-10.5-93.1,76.6c0,0-12.5,59.4,22.9,93.6c0.6,0.6,1.3,1.2,2,1.7L155.3,232.6z"/>
			<path fill="#F7A810" stroke="#F2CA71" stroke-width="1.3446" stroke-miterlimit="10" d="M283.9,116.7
				c14.5,6.1,21.7,12.5,21.2,19.2c-1.2,16.4-55.3,25.7-120.7,20.8c-65.4-5-117.4-22.3-116.1-38.8c0.6-7.4,10.4-13.1,28.7-16.9
				l7.4-11.4c-41,5.1-66.9,16.6-68.1,31.9c-1.9,24.9,66.3,50.4,152.3,56.9c86,6.5,157.3-8.3,159.2-33.2c1.2-16.1-25.3-32-68.6-43.3
				L283.9,116.7z"/>
			
				<ellipse transform="matrix(0.9454 -0.3259 0.3259 0.9454 -55.6449 89.0709)" fill="#398087" stroke="#F2CA71" stroke-width="1.1385" stroke-linecap="round" stroke-linejoin="round" cx="238.1" cy="210.6" rx="6.8" ry="3.8"/>
			
				<ellipse transform="matrix(0.9454 -0.3259 0.3259 0.9454 -60.4358 85.0116)" fill="#398087" stroke="#F2CA71" stroke-width="0.8979" stroke-linecap="round" stroke-linejoin="round" cx="223.6" cy="222.9" rx="5.4" ry="3"/>
			
				<ellipse transform="matrix(0.9454 -0.3259 0.3259 0.9454 -59.0478 79.6299)" fill="#398087" stroke="#F2CA71" stroke-width="1.3446" stroke-linecap="round" stroke-linejoin="round" cx="208.2" cy="216.1" rx="8.1" ry="4.5"/>
		</g>
	</g>
</g>
</svg>
