<?xml version="1.0" encoding="utf-8"?>
<!-- Generator: Adobe Illustrator 23.1.0, SVG Export Plug-In . SVG Version: 6.00 Build 0)  -->
<svg version="1.1" xmlns="http://www.w3.org/2000/svg" xmlns:xlink="http://www.w3.org/1999/xlink" x="0px" y="0px"
	 viewBox="0 0 595.3 595.3" enable-background="new 0 0 595.3 595.3" xml:space="preserve">
<g id="Capa_1">
</g>
<g id="Capa_2">
	<g>
		<polygon fill="#68959C" stroke="#F2CA71" stroke-width="3.8934" stroke-linejoin="round" stroke-miterlimit="10" points="
			462.8,195.2 447.3,253.8 391.6,237.3 407.3,186.3 		"/>
		<polygon fill="#30696B" stroke="#F2CA71" stroke-width="3.8934" stroke-miterlimit="10" points="253.2,290.2 342,290.2 342,229 
			247.4,221.5 		"/>
		<polygon fill="#68959C" stroke="#F2CA71" stroke-width="3.8934" stroke-linejoin="round" stroke-miterlimit="10" points="
			412.2,164.2 406.9,184.3 387.9,255.4 292.3,227.3 314.5,135.2 		"/>
		<polygon fill="#398087" stroke="#F2CA71" stroke-width="3.8934" stroke-linejoin="round" stroke-miterlimit="10" points="
			81.4,21.3 146.9,51.9 96,206.2 27.2,191.4 		"/>
		<polygon fill="#30696B" points="35.7,171.6 100,186.9 94.7,203.8 29.8,189.7 		"/>
		<ellipse fill="#DEEBEB" cx="297" cy="482.8" rx="288" ry="92.3"/>
		<polygon fill="#5E8589" points="449.2,246.5 446.2,251.5 395.2,236.2 396.3,231.8 		"/>
		<polygon fill="#5E8589" points="388.6,244.2 386.4,252.9 294.9,225.8 296.7,217.9 		"/>
		<path fill="#68959C" stroke="#F2CA71" stroke-width="3.8934" stroke-linejoin="round" stroke-miterlimit="10" d="M321.6,117.6
			c-4.4,12.4-36.4,128.8-36.4,128.8l-183.1-55.2l41.4-125.5L321.6,117.6z"/>
		<polygon fill="#5E8589" points="287.5,230.5 283.3,244.2 105.8,190 109.5,176.5 		"/>
		
			<line fill="#F7A810" stroke="#F2CA71" stroke-width="7.7868" stroke-linejoin="round" stroke-miterlimit="10" x1="162.9" y1="486.7" x2="266.3" y2="290.2"/>
		
			<line fill="#F7A810" stroke="#F2CA71" stroke-width="7.7868" stroke-linejoin="round" stroke-miterlimit="10" x1="294.7" y1="495.4" x2="294.7" y2="290.2"/>
		
			<line fill="#F7A810" stroke="#F2CA71" stroke-width="7.7868" stroke-linejoin="round" stroke-miterlimit="10" x1="427.2" y1="486.7" x2="327.4" y2="290.2"/>
		<polygon fill="#398087" stroke="#F2CA71" stroke-width="3.8934" stroke-linejoin="round" stroke-miterlimit="10" points="
			447.8,186.3 427.2,254.7 453.4,261 474.7,190.1 		"/>
		<polygon fill="#30696B" points="432.2,245.8 430.1,252.9 451.8,258.5 454.2,251.1 		"/>
	</g>
</g>
</svg>
