<?xml version="1.0" encoding="utf-8"?>
<!-- Generator: Adobe Illustrator 21.1.0, SVG Export Plug-In . SVG Version: 6.00 Build 0)  -->
<svg version="1.1" id="Capa_1" xmlns="http://www.w3.org/2000/svg" xmlns:xlink="http://www.w3.org/1999/xlink" x="0px" y="0px"
	 viewBox="0 0 100 100" style="enable-background:new 0 0 100 100;" xml:space="preserve">
<g>
	<path d="M2.1,49.4c3.3-2.7,6.6-5.4,9.9-8.1c4.9-4.1,9.9-8.1,14.8-12.2c3.5-2.9,7.1-5.8,10.6-8.8c4.2-3.4,8.4-6.9,12.6-10.4
		c1.1,0.9,2.2,1.8,3.3,2.7c2.6,2.2,5.3,4.4,7.9,6.5c3.8,3.2,7.7,6.3,11.5,9.5c4,3.3,8,6.5,11.9,9.8c3.3,2.7,6.6,5.5,10,8.2
		c1.1,0.9,2.2,1.8,3.3,2.7c0,0.1,0,0.1,0,0.2c-0.8,1-1.7,1.9-2.5,2.9c-0.9,1.1-1.8,2.2-2.8,3.4c-1-0.8-2-1.6-3-2.5
		c-3.3-2.7-6.7-5.5-10-8.2c-4.3-3.5-8.6-7.1-12.9-10.7c-5.2-4.3-10.4-8.6-15.7-12.9c-1-0.9-1-0.8-2,0C44,25.8,38.9,30,33.8,34.2
		c-4.3,3.5-8.6,7.1-13,10.6c-4.3,3.6-8.7,7.1-13,10.7c-0.1,0.1-0.3,0.2-0.5,0.4c-0.9-1.1-1.8-2.2-2.8-3.3c-0.8-1-1.7-2-2.5-2.9
		C2.1,49.5,2.1,49.5,2.1,49.4z"/>
	<path d="M81,87.2c-11.6,0-23.1,0-34.7,0c0-0.4,0-0.7,0-1.1c0-10.2,0-20.5,0-30.7c0-1,0-1-1-1c-5.5,0-11,0-16.5,0c-1,0-1,0-1,1.1
		c0,10.2,0,20.5,0,30.7c0,0.3,0,0.6,0,1c-2.9,0-5.7,0-8.6,0c0-0.3,0-0.7,0-1c0-10.3,0-20.5,0-30.8c0-0.8,0.3-1.2,0.8-1.7
		c2.9-2.3,5.7-4.7,8.6-7c7-5.7,13.9-11.5,20.9-17.2c0.2-0.2,0.4-0.3,0.7-0.6c1,0.9,2.1,1.7,3.1,2.6c7.7,6.4,15.5,12.8,23.2,19.2
		c1.4,1.2,2.8,2.3,4.2,3.5c0.2,0.2,0.4,0.5,0.4,0.8c0,10.6,0,21.1,0,31.7C81,86.8,81,87,81,87.2z M72.3,54.5c-5.8,0-11.5,0-17.3,0
		c0,0.3,0,0.5,0,0.8c0,5.2,0,10.4,0,15.6c0,0.7,0.2,0.9,0.9,0.9c5.2,0,10.4,0,15.5,0c0.8,0,0.9-0.2,0.9-1c0-5.2,0-10.4,0-15.5
		C72.3,55,72.3,54.8,72.3,54.5z"/>
</g>
</svg>
